<svg width="60" height="60" viewBox="0 0 60 60" fill="none" xmlns="http://www.w3.org/2000/svg">
<path d="M50.3998 17.1001C43.1998 6.00012 28.4998 2.70012 17.0998 9.60012C5.99983 16.5001 2.39983 31.5001 9.59983 42.6001L10.1998 43.5001L7.79983 52.5001L16.7998 50.1001L17.6998 50.7001C21.5998 52.8001 25.7998 54.0001 29.9998 54.0001C34.4998 54.0001 38.9998 52.8001 42.8998 50.4001C53.9998 43.2001 57.2998 28.5001 50.3998 17.1001ZM44.0998 40.2001C42.8998 42.0001 41.3998 43.2001 39.2998 43.5001C38.0998 43.5001 36.5998 44.1001 30.5998 41.7001C25.4998 39.3001 21.2998 35.4001 18.2998 30.9001C16.4998 28.8001 15.5998 26.1001 15.2998 23.4001C15.2998 21.0001 16.1998 18.9001 17.6998 17.4001C18.2998 16.8001 18.8998 16.5001 19.4998 16.5001H20.9998C21.5998 16.5001 22.1998 16.5001 22.4998 17.7001C23.0998 19.2001 24.5998 22.8001 24.5998 23.1001C24.8998 23.4001 24.8998 24.0001 24.5998 24.3001C24.8998 24.9001 24.5998 25.5001 24.2998 25.8001C23.9998 26.1001 23.6998 26.7001 23.3998 27.0001C22.7998 27.3001 22.4998 27.9001 22.7998 28.5001C23.9998 30.3001 25.4998 32.1001 26.9998 33.6001C28.7998 35.1001 30.5998 36.3001 32.6998 37.2001C33.2998 37.5001 33.8998 37.5001 34.1998 36.9001C34.4998 36.3001 35.9998 34.8001 36.5998 34.2001C37.1998 33.6001 37.4998 33.6001 38.0998 33.9001L42.8998 36.3001C43.4998 36.6001 44.0998 36.9001 44.3998 37.2001C44.6998 38.1001 44.6998 39.3001 44.0998 40.2001Z" fill="white"/>
</svg>
