<svg width="60" height="60" viewBox="0 0 60 60" fill="none" xmlns="http://www.w3.org/2000/svg">
<path d="M56.9997 43.5V16.5C56.9997 14.01 54.9897 12 52.4997 12H10.4697C7.97973 12 5.96973 14.01 5.96973 16.5V43.5C5.96973 45.99 7.97973 48 10.4697 48H52.4997C54.9897 48 56.9997 45.99 56.9997 43.5ZM53.0697 16.17C54.0597 17.16 53.5197 18.18 52.9797 18.69L40.7997 29.85L52.4997 42.03C52.8597 42.45 53.0997 43.11 52.6797 43.56C52.2897 44.04 51.3897 44.01 50.9997 43.71L37.8897 32.52L31.4697 38.37L25.0797 32.52L11.9697 43.71C11.5797 44.01 10.6797 44.04 10.2897 43.56C9.86973 43.11 10.1097 42.45 10.4697 42.03L22.1697 29.85L9.98973 18.69C9.44973 18.18 8.90973 17.16 9.89973 16.17C10.8897 15.18 11.9097 15.66 12.7497 16.38L31.4697 31.5L50.2197 16.38C51.0597 15.66 52.0797 15.18 53.0697 16.17Z" fill="white"/>
</svg>
